<?xml version="1.0" encoding="UTF-8" standalone="no"?>
<!-- Created with Inkscape (http://www.inkscape.org/) -->

<svg
   width="128"
   height="128"
   viewBox="0 0 33.866665 33.866668"
   version="1.1"
   id="svg1"
   inkscape:version="1.4.4 (1:1.4.4+202605061432+dcaf3e7d9e)"
   sodipodi:docname="favicon.svg"
   xml:space="preserve"
   xmlns:inkscape="http://www.inkscape.org/namespaces/inkscape"
   xmlns:sodipodi="http://sodipodi.sourceforge.net/DTD/sodipodi-0.dtd"
   xmlns:xlink="http://www.w3.org/1999/xlink"
   xmlns="http://www.w3.org/2000/svg"
   xmlns:svg="http://www.w3.org/2000/svg"><sodipodi:namedview
     id="namedview1"
     pagecolor="#ffffff"
     bordercolor="#111111"
     borderopacity="1"
     inkscape:showpageshadow="0"
     inkscape:pageopacity="0"
     inkscape:pagecheckerboard="1"
     inkscape:deskcolor="#d1d1d1"
     inkscape:document-units="mm"
     inkscape:zoom="4.1978414"
     inkscape:cx="63.723227"
     inkscape:cy="80.398464"
     inkscape:window-width="1862"
     inkscape:window-height="1016"
     inkscape:window-x="58"
     inkscape:window-y="27"
     inkscape:window-maximized="1"
     inkscape:current-layer="layer1" /><defs
     id="defs1"><marker
       markerWidth="0.52499998"
       markerHeight="0.99999994"
       refX="0"
       refY="0"
       orient="auto-start-reverse"
       id="marker11"
       viewBox="0 0 0.525 1"
       inkscape:stockid="Triangle cap"
       style="overflow:visible"
       preserveAspectRatio="xMidYMid"
       inkscape:isstock="true"
       inkscape:collect="always"><path
         style="fill:context-stroke;stroke-linecap:butt"
         d="M 0,-1 1,0 0,1 -0.05,0 Z"
         sodipodi:nodetypes="sssssscsss"
         transform="scale(0.5)"
         id="path11" /></marker><marker
       markerWidth="0.52499998"
       markerHeight="0.99999994"
       refX="0"
       refY="0"
       orient="auto-start-reverse"
       id="marker10"
       viewBox="0 0 0.525 1"
       inkscape:stockid="Triangle cap"
       style="overflow:visible"
       preserveAspectRatio="xMidYMid"
       inkscape:isstock="true"
       inkscape:collect="always"><path
         style="fill:context-stroke;stroke-linecap:butt"
         d="M 0,-1 1,0 0,1 -0.05,0 Z"
         sodipodi:nodetypes="sssssscsss"
         transform="scale(0.5)"
         id="path10" /></marker><marker
       markerWidth="0.52499998"
       markerHeight="0.99999994"
       refX="0"
       refY="0"
       orient="auto-start-reverse"
       id="marker9"
       viewBox="0 0 0.525 1"
       inkscape:stockid="Triangle cap"
       style="overflow:visible"
       preserveAspectRatio="xMidYMid"
       inkscape:isstock="true"
       inkscape:collect="always"><path
         style="fill:context-stroke;stroke-linecap:butt"
         d="M 0,-1 1,0 0,1 -0.05,0 Z"
         sodipodi:nodetypes="sssssscsss"
         transform="scale(0.5)"
         id="path9" /></marker><marker
       markerWidth="0.52499998"
       markerHeight="1"
       refX="0"
       refY="0"
       orient="auto-start-reverse"
       id="CapTriangle"
       viewBox="0 0 0.525 1"
       inkscape:stockid="Triangle cap"
       style="overflow:visible"
       preserveAspectRatio="xMidYMid"
       inkscape:isstock="true"
       inkscape:collect="always"><path
         style="fill:context-stroke;stroke-linecap:butt"
         d="M 0,-1 1,0 0,1 -0.05,0 Z"
         sodipodi:nodetypes="sssssscsss"
         transform="scale(0.5)"
         id="path61" /></marker><linearGradient
       id="linearGradient8"
       inkscape:collect="always"><stop
         style="stop-color:#ff6600;stop-opacity:1;"
         offset="0.23971899"
         id="stop8" /><stop
         style="stop-color:#ff6600;stop-opacity:0;"
         offset="0.86281258"
         id="stop9" /></linearGradient><linearGradient
       inkscape:collect="always"
       xlink:href="#linearGradient8"
       id="linearGradient9"
       x1="65.380188"
       y1="108.94104"
       x2="65.380188"
       y2="27.213623"
       gradientUnits="userSpaceOnUse"
       gradientTransform="matrix(0.33495182,0,0,0.33757981,-6.0827985,-8.0195373)" /></defs><g
     inkscape:label="Layer 1"
     inkscape:groupmode="layer"
     id="layer1"
     transform="translate(-0.12277542,0.34114845)"><path
       style="display:inline;fill:#000080;fill-opacity:1;stroke:url(#linearGradient9);stroke-width:0.585054;stroke-linecap:butt;stroke-linejoin:round;stroke-dasharray:none;stroke-opacity:1"
       d="m 5.8752682,3.801701 c 0.6626471,2.2247397 1.9036337,2.2270298 2.6401609,4.0811177 0.7365273,1.8540882 -0.6207029,4.3826793 -0.9484272,7.0347103 -0.3277243,2.652031 -0.026629,4.85956 1.3772462,7.701069 1.4038789,2.841509 2.2776299,4.46388 6.7686389,8.124781 0,0 -0.200391,-5.353469 0.820941,-8.380106 1.021332,-3.026638 2.505711,-5.208161 4.864717,-7.519252 2.359006,-2.311089 3.912783,-3.833615 5.821029,-6.3037091 1.90825,-2.4700947 2.50988,-3.6640326 2.840135,-6.0993332 C 26.597683,5.5836664 18.181071,4.6958259 15.523408,4.1841506 11.67249,3.442739 9.650885,3.2807673 5.8752682,3.801701 Z"
       id="path3"
       sodipodi:nodetypes="czzzczzzcsc" /><path
       style="fill:#ff6600;stroke:#000000;stroke-width:0.133454;stroke-linecap:butt;stroke-linejoin:round;stroke-dasharray:none;stroke-opacity:1"
       d="m 14.272756,21.601055 c 9.000872,0.668409 11.949477,-2.135088 12.041376,-3.591659 0.231325,-3.666405 -8.35844,-5.142204 -14.329144,-4.657757 -2.4403159,0.198 -0.558005,1.33986 1.860006,1.731834 C 6.2049176,14.45297 3.1424728,12.783154 3.429459,10.595428 3.7438795,8.1985569 9.1243444,6.5408407 16.874799,6.1500502 23.054772,5.8384464 29.349725,6.0616455 30.73971,2.5017986 30.490433,6.4981442 23.010966,7.0738514 16.830993,7.3854552 9.0805376,7.7762466 3.7000727,9.4339639 3.3856515,11.830834 c -0.2869862,2.187726 4.0953444,3.910072 11.7193105,4.5593 5.604621,0.477267 4.45872,-1.78941 -0.05921,-1.964957 5.981453,-0.535834 11.363445,2.618163 11.227844,4.897822 -0.08666,1.456916 -3.610187,4.187906 -11.424872,3.501387 -3.608559,-0.317011 -12.4697591,-2.231774 -7.9314931,2.537002 -6.56756214,-4.874095 1.6825587,-4.18161 7.3555251,-3.760333 z"
       id="path1-0"
       sodipodi:nodetypes="ssscsscssscsscs" /><g
       id="g4"
       style="stroke:#ffd42a;stroke-width:0.326225;stroke-dasharray:none;stroke-opacity:1"
       transform="matrix(0.3349518,0,0,0.33757981,-6.0827985,-8.0195374)"><path
         style="display:inline;fill:none;stroke:#ffd42a;stroke-width:0.326225;stroke-linecap:butt;stroke-linejoin:miter;stroke-dasharray:none;stroke-opacity:1;marker-start:url(#marker10);marker-end:url(#marker11)"
         d="M 57.686355,65.225423 C 80.370201,62.616676 96.553463,71.238095 96.260664,79.015991 96.026059,85.247992 82.172095,92.202752 61.834159,89.462068 51.470751,88.065524 27.598446,85.666466 34.711177,94.180217"
         id="path2-6-7"
         sodipodi:nodetypes="cssc" /><path
         style="display:inline;fill:none;stroke:#ffd42a;stroke-width:0.326225;stroke-linecap:butt;stroke-linejoin:miter;stroke-dasharray:none;stroke-opacity:1;marker-start:url(#CapTriangle);marker-end:url(#marker9)"
         d="m 107.5468,35.609516 c -5.97897,5.900898 -16.45232,6.590226 -40.061375,8.17854 -26.246141,1.765727 -38.775199,6.59163 -38.926547,13.755221 -0.142344,6.737363 13.573101,12.820804 38.406399,12.543324"
         id="path1-0-3"
         sodipodi:nodetypes="cssc" /></g></g></svg>
