<?xml version="1.0" encoding="UTF-8" standalone="no"?>
<!-- Created with Inkscape (http://www.inkscape.org/) -->

<svg
   width="128"
   height="128"
   viewBox="0 0 33.866665 33.866668"
   version="1.1"
   id="svg1"
   inkscape:version="1.4.4 (1:1.4.4+202605061432+dcaf3e7d9e)"
   sodipodi:docname="favicon.svg"
   xml:space="preserve"
   xmlns:inkscape="http://www.inkscape.org/namespaces/inkscape"
   xmlns:sodipodi="http://sodipodi.sourceforge.net/DTD/sodipodi-0.dtd"
   xmlns:xlink="http://www.w3.org/1999/xlink"
   xmlns="http://www.w3.org/2000/svg"
   xmlns:svg="http://www.w3.org/2000/svg"><sodipodi:namedview
     id="namedview1"
     pagecolor="#ffffff"
     bordercolor="#111111"
     borderopacity="1"
     inkscape:showpageshadow="0"
     inkscape:pageopacity="0"
     inkscape:pagecheckerboard="1"
     inkscape:deskcolor="#d1d1d1"
     inkscape:document-units="mm"
     inkscape:zoom="2.9683221"
     inkscape:cx="34.362847"
     inkscape:cy="84.05422"
     inkscape:window-width="1862"
     inkscape:window-height="1016"
     inkscape:window-x="58"
     inkscape:window-y="27"
     inkscape:window-maximized="1"
     inkscape:current-layer="layer1" /><defs
     id="defs1"><marker
       markerWidth="0.52499998"
       markerHeight="0.99999994"
       refX="0"
       refY="0"
       orient="auto-start-reverse"
       id="marker11"
       viewBox="0 0 0.525 1"
       inkscape:stockid="Triangle cap"
       style="overflow:visible"
       preserveAspectRatio="xMidYMid"
       inkscape:isstock="true"
       inkscape:collect="always"><path
         style="fill:context-stroke;stroke-linecap:butt"
         d="M 0,-1 1,0 0,1 -0.05,0 Z"
         sodipodi:nodetypes="sssssscsss"
         transform="scale(0.5)"
         id="path11" /></marker><marker
       markerWidth="0.52499998"
       markerHeight="0.99999994"
       refX="0"
       refY="0"
       orient="auto-start-reverse"
       id="marker10"
       viewBox="0 0 0.525 1"
       inkscape:stockid="Triangle cap"
       style="overflow:visible"
       preserveAspectRatio="xMidYMid"
       inkscape:isstock="true"
       inkscape:collect="always"><path
         style="fill:context-stroke;stroke-linecap:butt"
         d="M 0,-1 1,0 0,1 -0.05,0 Z"
         sodipodi:nodetypes="sssssscsss"
         transform="scale(0.5)"
         id="path10" /></marker><marker
       markerWidth="0.52499998"
       markerHeight="0.99999994"
       refX="0"
       refY="0"
       orient="auto-start-reverse"
       id="marker9"
       viewBox="0 0 0.525 1"
       inkscape:stockid="Triangle cap"
       style="overflow:visible"
       preserveAspectRatio="xMidYMid"
       inkscape:isstock="true"
       inkscape:collect="always"><path
         style="fill:context-stroke;stroke-linecap:butt"
         d="M 0,-1 1,0 0,1 -0.05,0 Z"
         sodipodi:nodetypes="sssssscsss"
         transform="scale(0.5)"
         id="path9" /></marker><marker
       markerWidth="0.52499998"
       markerHeight="1"
       refX="0"
       refY="0"
       orient="auto-start-reverse"
       id="CapTriangle"
       viewBox="0 0 0.525 1"
       inkscape:stockid="Triangle cap"
       style="overflow:visible"
       preserveAspectRatio="xMidYMid"
       inkscape:isstock="true"
       inkscape:collect="always"><path
         style="fill:context-stroke;stroke-linecap:butt"
         d="M 0,-1 1,0 0,1 -0.05,0 Z"
         sodipodi:nodetypes="sssssscsss"
         transform="scale(0.5)"
         id="path61" /></marker><linearGradient
       id="linearGradient8"
       inkscape:collect="always"><stop
         style="stop-color:#ff6600;stop-opacity:1;"
         offset="0.45643765"
         id="stop8" /><stop
         style="stop-color:#ff6600;stop-opacity:0;"
         offset="0.86281258"
         id="stop9" /></linearGradient><linearGradient
       inkscape:collect="always"
       xlink:href="#linearGradient8"
       id="linearGradient9"
       x1="65.380188"
       y1="108.94104"
       x2="65.380188"
       y2="27.213623"
       gradientUnits="userSpaceOnUse"
       gradientTransform="matrix(0.33495182,0,0,0.33757981,-5.9358422,-8.0195476)" /></defs><g
     inkscape:label="Layer 1"
     inkscape:groupmode="layer"
     id="layer1"
     transform="translate(-0.12277542,0.34114845)"><path
       style="display:inline;fill:#000080;fill-opacity:1;stroke:url(#linearGradient9);stroke-width:1.5875;stroke-linecap:butt;stroke-linejoin:round;stroke-dasharray:none;stroke-opacity:1"
       d="m 6.0222245,3.8016907 c 0.6626471,2.2247397 1.9036337,2.2270298 2.6401604,4.0811177 0.7365277,1.8540882 -0.6207024,4.3826796 -0.9484267,7.0347106 -0.3277243,2.652031 -0.026629,4.85956 1.3772464,7.701069 1.4038784,2.841509 2.2776304,4.46388 6.7686394,8.124781 0,0 -0.200391,-5.353469 0.820941,-8.380106 1.021332,-3.026638 2.505711,-5.208161 4.864717,-7.519252 2.359006,-2.311089 3.912783,-3.833615 5.821029,-6.3037094 1.90825,-2.4700947 2.50988,-3.6640326 2.840135,-6.0993332 C 26.74464,5.5836561 18.328028,4.6958156 15.670365,4.1841403 11.819447,3.4427287 9.7978413,3.280757 6.0222245,3.8016907 Z"
       id="path3"
       sodipodi:nodetypes="czzzczzzcsc" /><path
       style="fill:#ff6600;stroke:#000000;stroke-width:0.303806;stroke-linecap:butt;stroke-linejoin:round;stroke-dasharray:none;stroke-opacity:1"
       d="m 13.948915,25.671629 c 11.442174,0 13.410727,-2.624644 13.410727,-4.251959 0,-5.043779 -9.488351,-7.21882 -15.958661,-5.51405 -2.2016558,0.580083 -0.621462,1.586182 2.071527,2.050218 C 4.963598,17.209422 1.5528904,15.232622 1.8725128,12.6427 2.2226895,9.8051817 8.0890039,8.3785222 16.720845,7.9158878 23.603607,7.546998 30.740444,7.2754151 32.2885,3.061117 c -0.277626,4.7310438 -8.920907,7.261157 -15.238384,7.589857 -5.480321,0.285143 -15.2263924,0.285059 -15.2263924,3.454252 0,3.298829 2.4984187,5.497846 10.4233154,5.965811 7.402978,0.437145 7.594489,-2.686698 2.562781,-2.894518 6.724675,-0.634343 12.655702,3.099493 12.504679,5.79825 -0.09651,1.724759 -2.262206,5.319992 -12.692608,4.747883 C 10.682709,27.506588 0.70255911,24.477791 5.7569189,30.123271 -1.5575095,24.35311 8.8595085,25.671629 13.948918,25.671629 Z"
       id="path1-0"
       sodipodi:nodetypes="ssscsscssscsscss" /><g
       id="g4"
       style="display:inline;stroke:#ffd42a;stroke-width:0.78683396;stroke-dasharray:none;stroke-opacity:1"
       transform="matrix(0.3349518,0,0,0.33757981,-6.0827985,-8.0195374)"><path
         style="display:inline;fill:none;stroke:#ffd42a;stroke-width:0.786834;stroke-linecap:butt;stroke-linejoin:miter;stroke-dasharray:none;stroke-opacity:1;marker-start:url(#marker10);marker-end:url(#marker11)"
         d="m 57.310012,72.880399 c 31.057483,-5.969468 42.526914,12.5316 42.243655,17.244643 -0.541211,9.005009 -23.247721,13.535368 -35.273277,12.499848 -18.452384,-1.58894 -39.411124,-4.046374 -33.826596,4.6248"
         id="path2-6-7"
         sodipodi:nodetypes="cssc" /><path
         style="display:inline;fill:none;stroke:#ffd42a;stroke-width:0.78683396;stroke-linecap:butt;stroke-linejoin:miter;stroke-dasharray:none;stroke-opacity:1;marker-start:url(#CapTriangle);marker-end:url(#marker9)"
         d="m 109.14626,40.650598 c -5.97897,5.900898 -18.978691,8.956659 -42.601693,10.325667 -32.079462,1.859081 -42.461182,6.03005 -42.501808,13.195101 -0.04826,8.511077 18.841907,19.07548 41.511231,15.250572"
         id="path1-0-3"
         sodipodi:nodetypes="cssc" /></g><path
       style="fill:none;stroke:#000000;stroke-width:0.303806;stroke-linecap:butt;stroke-linejoin:round;stroke-dasharray:none;stroke-opacity:1"
       d="m 13.948915,25.671629 c 11.442174,0 13.410727,-2.624644 13.410727,-4.251959 0,-5.043779 -9.488351,-7.21882 -15.958661,-5.51405 -2.2016561,0.580083 -0.621462,1.586182 2.071527,2.050218 C 4.9635977,17.209422 1.5528897,15.232622 1.8725127,12.6427 2.2226887,9.8051821 8.0890036,8.3785221 16.720845,7.9158881 23.603607,7.5469981 30.740444,7.2754151 32.2885,3.061117 c -0.277626,4.7310441 -8.920907,7.261157 -15.238384,7.589857 -5.480321,0.285143 -15.2263923,0.285059 -15.2263923,3.454252 0,3.298829 2.498418,5.497846 10.4233153,5.965811 7.402978,0.437145 7.594489,-2.686698 2.562781,-2.894518 6.724675,-0.634343 12.655702,3.099493 12.504679,5.79825 -0.09651,1.724759 -2.262206,5.319992 -12.692608,4.747883 -3.939182,-0.216064 -13.91933227,-3.244861 -8.8649723,2.400619 -7.314428,-5.770161 3.1025895,-4.451642 8.1919993,-4.451642 z"
       id="path1-0-35"
       sodipodi:nodetypes="ssscsscssscsscss" /></g></svg>
