<?xml version="1.0" encoding="UTF-8" standalone="no"?>
<svg
   version="1.1"
   id="Layer_1"
   x="0px"
   y="0px"
   viewBox="0 0 24.000001 24.000001"
   xml:space="preserve"
   sodipodi:docname="IconGoogleScholar.svg"
   width="24"
   height="24"
   inkscape:version="1.4.3 (1:1.4.3+202512261034+0d15f75042)"
   xmlns:inkscape="http://www.inkscape.org/namespaces/inkscape"
   xmlns:sodipodi="http://sodipodi.sourceforge.net/DTD/sodipodi-0.dtd"
   xmlns="http://www.w3.org/2000/svg"
   xmlns:svg="http://www.w3.org/2000/svg"><defs
     id="defs3" /><sodipodi:namedview
     id="namedview3"
     pagecolor="#ffffff"
     bordercolor="#111111"
     borderopacity="1"
     inkscape:showpageshadow="0"
     inkscape:pageopacity="0"
     inkscape:pagecheckerboard="1"
     inkscape:deskcolor="#d1d1d1"
     inkscape:zoom="27.115886"
     inkscape:cx="7.2097958"
     inkscape:cy="13.110396"
     inkscape:window-width="1866"
     inkscape:window-height="1016"
     inkscape:window-x="54"
     inkscape:window-y="27"
     inkscape:window-maximized="1"
     inkscape:current-layer="Layer_1" /><style
     type="text/css"
     id="style1"><![CDATA[
	.st0{fill:#356AC3;}
	.st1{fill:#A0C3FF;}
	.st2{fill:#76A7FA;}
	.st3{fill:#4285F4;}
]]></style><g
     id="g3"
     transform="matrix(0.15876352,0,0,0.15876352,2.2455693,2.2455693)"><polygon
       class="st3"
       points="0,48.64 61.44,0 61.44,98.67 "
       id="polygon1" /><polygon
       class="st0"
       points="122.88,48.64 61.44,0 61.44,98.67 "
       id="polygon2" /><path
       class="st1"
       d="M 97.28,87.04 C 97.28,67.25 81.23,51.2 61.44,51.2 41.65,51.2 25.6,67.25 25.6,87.04 c 0,19.79 16.05,35.84 35.84,35.84 19.79,0 35.84,-16.05 35.84,-35.84 z"
       id="path2" /><path
       class="st2"
       d="M 29.05,71.68 C 34.8,59.57 47.14,51.2 61.44,51.2 c 14.3,0 26.64,8.37 32.39,20.48 z"
       id="path3" /></g></svg>
