<?xml version="1.0" encoding="UTF-8" standalone="no"?>
<svg
   width="24"
   height="24"
   viewBox="0 0 24 24"
   fill="none"
   stroke="currentColor"
   stroke-width="2"
   stroke-linecap="round"
   stroke-linejoin="round"
   class="icon icon-tabler icons-tabler-outline icon-tabler-brand-linkedin"
   version="1.1"
   id="svg6"
   sodipodi:docname="IconInstagram.svg"
   inkscape:version="1.4.4 (1:1.4.4+202605061432+dcaf3e7d9e)"
   xmlns:inkscape="http://www.inkscape.org/namespaces/inkscape"
   xmlns:sodipodi="http://sodipodi.sourceforge.net/DTD/sodipodi-0.dtd"
   xmlns="http://www.w3.org/2000/svg"
   xmlns:svg="http://www.w3.org/2000/svg">
  <defs
     id="defs6" />
  <sodipodi:namedview
     id="namedview6"
     pagecolor="#ffffff"
     bordercolor="#111111"
     borderopacity="1"
     inkscape:showpageshadow="0"
     inkscape:pageopacity="0"
     inkscape:pagecheckerboard="1"
     inkscape:deskcolor="#d1d1d1"
     inkscape:zoom="24.542498"
     inkscape:cx="12.997862"
     inkscape:cy="13.914639"
     inkscape:window-width="1862"
     inkscape:window-height="1016"
     inkscape:window-x="58"
     inkscape:window-y="27"
     inkscape:window-maximized="1"
     inkscape:current-layer="svg6" />
  <path
     stroke="none"
     d="M0 0h24v24H0z"
     fill="none"
     id="path1" />
  <path
     d="m 15.779112,7.8847539 v 0.01"
     id="path3" />
  <path
     d="M3 7a4 4 0 0 1 4 -4h10a4 4 0 0 1 4 4v10a4 4 0 0 1 -4 4h-10a4 4 0 0 1 -4 -4z"
     id="path6" />
  <path
     d="m 11.683752,9.3167981 c 1.624982,0 3.435496,0.8170879 3.391728,2.9497799 -0.04377,2.132691 -1.379104,3.34085 -3.269491,3.300397 -1.8903874,-0.04045 -3.3461744,-0.824474 -3.3461744,-3.341143 0,-2.5166688 1.5989554,-2.9090339 3.2239374,-2.9090339 z"
     id="path6-6"
     style="stroke-width:2;stroke-dasharray:none"
     sodipodi:nodetypes="zzzzz" />
</svg>
